# AST/ASF file generated using VICON BodyLanguage
# -----------------------------------------------
:version 1.10
:name VICON
:units
  mass 1.0
  length 0.45
  angle deg
:documentation
   .ast/.asf automatically generated from VICON data using
   VICON BodyBuilder and BodyLanguage model FoxedUp or BRILLIANT.MOD
:root
   order TX TY TZ RX RY RZ
   axis XYZ
   position 0 0 0  
   orientation 0 0 0 
:bonedata
  begin
     id 1 
     name lhipjoint
     direction 0.61886 -0.69539 0.365302 
     length 2.20474 
     axis 0 0 0  XYZ
  end
  begin
     id 2 
     name lfemur
     direction 0.34202 -0.939693 0  
     length 6.65149  
     axis 0 0 20  XYZ
    dof rx ry rz
    limits (-160.0 20.0)
           (-70.0 70.0)
           (-60.0 70.0)
  end
  begin
     id 3 
     name ltibia
     direction 0.34202 -0.939693 0   
     length 6.35814   
     axis 0 0 20   XYZ
    dof rx
    limits (-10.0 170.0)
  end
  begin
     id 4 
     name lfoot
     direction 0.101224 -0.278109 0.955201   
     length 2.18766   
     axis -90 7.62852e-016 20   XYZ
    dof rx rz
    limits (-45.0 90.0)
           (-70.0 20.0)
  end
  begin
     id 5 
     name ltoes
     direction 1.53524e-011 -4.21877e-011 1   
     length 1.09206   
     axis -90 7.62852e-016 20   XYZ
    dof rx
    limits (-90.0 20.0)
  end
  begin
     id 6 
     name rhipjoint
     direction -0.600207 -0.708087 0.371972   
     length 2.1652  
     axis 0 0 0  XYZ 
  end
  begin
     id 7 
     name rfemur
     direction -0.34202 -0.939693 0   
     length 6.54691   
     axis 0 0 -20   XYZ
    dof rx ry rz
    limits (-160.0 20.0)
           (-70.0 70.0)
           (-70.0 60.0)
  end
  begin
     id 8 
     name rtibia
     direction -0.34202 -0.939693 0   
     length 6.37474   
     axis 0 0 -20   XYZ
    dof rx
    limits (-10.0 170.0)
 end
 begin
     id 9 
     name rfoot
     direction -0.111266 -0.3057 0.945604   
     length 2.00903  
     axis -90 -7.62852e-016 -20   XYZ
    dof rx rz
    limits (-45.0 90.0)
           (-20.0 70.0)
  end
  begin
     id 10 
     name rtoes
     direction -1.5362e-011 -4.21913e-011 1   
     length 1.00221   
     axis -90 -7.62852e-016 -20   XYZ
    dof rx
    limits (-90.0 20.0)
  end
  begin
     id 11 
     name lowerback
     direction -0.0224561 0.999731 -0.00577314   
     length 2.10409   
     axis 0 0 0   XYZ
    dof rx ry rz
    limits (-20.0 45.0)
           (-30.0 30.0)
           (-30.0 30.0)
  end
  begin
     id 12 
     name upperback
     direction 0.0213126 0.999185 -0.0342817   
     length 2.09783   
     axis 0 0 0   XYZ
    dof rx ry rz
    limits (-20.0 45.0)
           (-30.0 30.0)
           (-30.0 30.0)
  end
  begin
     id 13 
     name thorax
     direction 0.0312356 0.999036 -0.0308451   
     length 2.09788   
     axis 0 0 0   XYZ
    dof rx ry rz
    limits (-20.0 45.0)
           (-30.0 30.0)
           (-30.0 30.0)
  end
  begin
     id 14 
     name lowerneck
     direction -0.0114419 0.996481 0.0830329   
     length 1.38575   
     axis 0 0 0   XYZ
    dof rx ry rz
    limits (-20.0 45.0)
           (-30.0 30.0)
           (-30.0 30.0)
  end
  begin
     id 15 
     name upperneck
     direction -0.0075675 0.996187 -0.0869092   
     length 1.39401   
     axis 0 0 0   XYZ
    dof rx ry rz
    limits (-20.0 45.0)
           (-30.0 30.0)
           (-30.0 30.0)
  end
  begin
     id 16
     name head
     direction -0.00222073 0.999264 -0.0382974  
     length 1.3964  
     axis 0 0 0   XYZ
    dof rx ry rz
    limits (-20.0 45.0)
           (-30.0 30.0)
           (-30.0 30.0)
  end
  begin
     id 17 
     name lclavicle
     direction 0.965962 0.222138 0.132556  
     length 2.81514  
     axis 0 0 0   XYZ
    dof ry rz
    limits (-20.0 10.0)
           (0.0 20.0)
  end
  begin
     id 18 
     name lhumerus
     direction 1 -4.48972e-011 7.03471e-018   
     length 4.47366   
     axis 180 -30 -90   XYZ
    dof rx ry rz
    limits (-60.0 90.0)
           (-90.0 90.0)
           (-90.0 90.0)
  end
  begin
     id 19
     name lradius
     direction 1 -4.48951e-011 -6.22192e-028   
     length 3.19948   
     axis 180 -30 -90   XYZ
    dof rx
    limits (-10.0 170.0)
  end
  begin
     id 20
     name lwrist
     direction 1 -4.48967e-011 -1.24264e-027   
     length 1.59974   
     axis 1.40095e-015 90 90   XYZ
    dof ry
    limits (-180.0 0.0)
 end
  begin
     id 21 
     name lhand
     direction 1 -4.4897e-011 -2.48528e-027   
     length 0.492667   
     axis 1.58582e-015 90 90   XYZ
    dof rx rz
    limits (-90.0 90.0)
           (-45.0 45.0)
  end
  begin
     id 22 
     name lfingers
     direction 1 -4.48996e-011 -4.97056e-027   
     length 0.397201   
     axis 3.17164e-015 90 90   XYZ
    dof rx
    limits (0.0 90.0)
  end
  begin
     id 23
     name lthumb
     direction 0.707107 -6.34981e-011 0.707107   
     length 0.570303   
     axis -90 45 2.85299e-015   XYZ
    dof rx rz
    limits (-45.0 45.0)
           (-45.0 45.0)
  end
  begin
     id 24 
     name rclavicle
     direction -0.961164 0.229034 0.153972   
     length 3.09348  
     axis 0 0 0   XYZ 
    dof ry rz
    limits (-10.0 20.0)
           (-20.0 0.0)
  end
  begin
     id 25 
     name rhumerus
     direction -1 -4.48971e-011 -9.06263e-028  
     length 4.3269   
     axis 180 30 90   XYZ
    dof rx ry rz
    limits (-90.0 60.0)
           (-90.0 90.0)
           (-90.0 90.0)
  end
  begin
     id 26 
     name rradius
     direction -1 -4.48953e-011 1.44659e-027   
     length 3.1896   
     axis 180 30 90   XYZ
    dof rx
    limits (-10.0 170.0)
  end
  begin
     id 27 
     name rwrist
     direction -1 -4.48988e-011 -1.24264e-027   
     length 1.5948   
     axis 1.40095e-015 -90 -90   XYZ
    dof ry
    limits (-180.0 0.0)
  end
  begin
     id 28
     name rhand
     direction -1 -4.49033e-011 -2.48528e-027   
     length 0.464496   
     axis 1.58582e-015 -90 -90   XYZ
    dof rx rz
    limits (-90.0 90.0)
           (-45.0 45.0)
  end
  begin
     id 29
     name rfingers
     direction -1 -4.48905e-011 -4.97056e-027   
     length 0.374489   
     axis 3.17164e-015 -90 -90   XYZ
    dof rx
    limits (0.0 90.0)
  end
  begin
     id 30
     name rthumb
     direction -0.707107 -6.34909e-011 0.707107   
     length 0.537693   
     axis -90 -45 -2.85299e-015   XYZ
    dof rx rz
    limits (-45.0 45.0)
           (-45.0 45.0)
  end
:hierarchy
  begin
    root lhipjoint rhipjoint lowerback
    lhipjoint lfemur
    lfemur ltibia
    ltibia lfoot
    lfoot ltoes
    rhipjoint rfemur
    rfemur rtibia
    rtibia rfoot
    rfoot rtoes
    lowerback upperback
    upperback thorax
    thorax lowerneck lclavicle rclavicle
    lowerneck upperneck
    upperneck head
    lclavicle lhumerus
    lhumerus lradius
    lradius lwrist
    lwrist lhand lthumb
    lhand lfingers
    rclavicle rhumerus
    rhumerus rradius
    rradius rwrist
    rwrist rhand rthumb
    rhand rfingers
  end

#!OML:ASF G:\acrobat\cartwheel_test 2\Patient 1\Session 2\acrobat4.ASF
:FULLY-SPECIFIED
:DEGREES
2079
root 1.75719 15.4145 -9.39 6.98854 -35.3144 2.95947
lowerback 0.190585 -3.05864 -9.28027
upperback 0.67603 -4.13904 5.24597
thorax 1.66572 -2.23687 10.7596
lowerneck -3.9438 -14.4474 -14.2747
upperneck 23.2222 -19.3356 2.39507
head 9.65991 -10.1079 0.967107
rclavicle 2.90226e-014 -2.22639e-014
rhumerus -25.9594 4.12724 -79.8418
rradius 29.5844
rwrist 5.8193
rhand -33.3766 -32.2343
rfingers 7.12502
rthumb -6.57774 -62.1122
lclavicle 2.90226e-014 -2.22639e-014
lhumerus -44.4268 0.594498 82.6201
lradius 40.4514
lwrist 17.7947
lhand -25.8598 4.41276
lfingers 7.12502
lthumb 0.681188 34.3914
rfemur -15.1132 22.7862 11.3898
rtibia 26.1775
rfoot -19.704 1.56119
rtoes 2.46416
lfemur -20.5072 -7.38869 -16.5209
ltibia 30.0704
lfoot -15.4012 9.29188
ltoes -30.5157
2080
root 1.83209 15.4172 -9.30866 6.88936 -36.5415 3.08953
lowerback 0.330463 -2.81526 -9.4517
upperback 0.696994 -3.8174 5.01601
thorax 1.52143 -2.06455 10.6273
lowerneck -3.83935 -14.0782 -13.6049
upperneck 21.486 -18.845 2.73499
head 8.94362 -9.79047 1.14309
rclavicle 2.20651e-014 -2.38542e-014
rhumerus -26.4138 3.09281 -79.5723
rradius 30.0053
rwrist 5.79686
rhand -33.313 -31.7129
rfingers 7.12502
rthumb -6.51638 -61.5927
lclavicle 2.20651e-014 -2.38542e-014
lhumerus -43.7993 0.0253605 82.4811
lradius 40.2342
lwrist 17.5926
lhand -24.2537 6.25635
lfingers 7.12502
lthumb 2.23235 36.2244
rfemur -15.5271 22.8054 10.7725
rtibia 26.4928
rfoot -19.3709 2.32211
rtoes 3.87343
lfemur -20.1178 -6.57278 -17.1334
ltibia 29.9476
lfoot -15.605 9.49241
ltoes -30.312
2081
root 1.9082 15.4228 -9.22464 6.8385 -37.7653 3.12728
lowerback 0.304265 -2.54876 -9.04549
upperback 0.770655 -3.4452 4.47074
thorax 1.45645 -1.86232 9.79546
lowerneck -3.78912 -13.7074 -12.8111
upperneck 19.928 -18.4087 3.25693
head 8.32666 -9.47931 1.33087
rclavicle 1.98785e-016 -1.59028e-014
rhumerus -26.9106 1.70649 -79.7521
rradius 30.4349
rwrist 5.94982
rhand -33.5122 -31.8097
rfingers 7.12502
rthumb -6.70867 -61.6835
lclavicle 1.98785e-016 -1.59028e-014
lhumerus -43.3667 -1.31262 82.0408
lradius 40.5198
lwrist 17.1953
lhand -25.4843 6.57472
lfingers 7.12502
lthumb 1.04386 36.5519
rfemur -15.9414 22.5219 10.332
rtibia 26.8634
rfoot -18.9745 2.82908
rtoes 3.78807
lfemur -19.7387 -5.54489 -17.7168
ltibia 29.8713
lfoot -15.8081 9.60281
ltoes -30.4362
2082
root 1.98775 15.4307 -9.1345 6.73434 -39.0275 3.12118
lowerback 0.440061 -2.37118 -8.73342
upperback 0.727782 -3.21187 4.12704
thorax 1.23947 -1.72259 9.25132
lowerneck -3.63333 -13.1887 -12.3089
upperneck 18.4657 -17.7123 3.5478
head 7.72493 -9.09188 1.50992
rclavicle -9.8796e-014 -2.14687e-014
rhumerus -27.5699 1.21149 -79.8289
rradius 31.0539
rwrist 5.84617
rhand -33.7401 -31.8137
rfingers 7.12502
rthumb -6.92864 -61.6803
lclavicle -9.8796e-014 -2.14687e-014
lhumerus -43.2623 -2.23729 81.8465
lradius 40.6845
lwrist 16.4663
lhand -28.0647 4.7036
lfingers 7.12502
lthumb -1.44843 34.6784
rfemur -16.3359 21.8642 10.0214
rtibia 27.3611
rfoot -18.5614 3.50638
rtoes 4.00482
lfemur -19.2505 -4.72614 -18.3025
ltibia 29.8201
lfoot -15.9418 10.0002
ltoes -30.7837
2083
root 2.06992 15.4367 -9.04648 6.65946 -40.4534 3.23634
lowerback 0.469063 -2.16722 -8.64045
upperback 0.641428 -2.938 3.89156
thorax 1.05238 -1.56703 8.95182
lowerneck -3.5884 -12.6398 -11.9029
upperneck 17.2221 -16.915 3.54213
head 7.20156 -8.6822 1.59588
rclavicle -1.06549e-013 7.95139e-016
rhumerus -28.1253 0.823264 -79.7219
rradius 31.6779
rwrist 5.75696
rhand -33.634 -31.9455
rfingers 7.12502
rthumb -6.82624 -61.8155
lclavicle -1.06549e-013 7.95139e-016
lhumerus -43.2067 -2.92946 81.7785
lradius 41.0728
lwrist 15.3253
lhand -29.3848 3.66525
lfingers 7.12502
lthumb -2.72331 33.6276
rfemur -16.9122 21.0776 9.5791
rtibia 28.0285
rfoot -18.0868 4.25733
rtoes 4.1026
lfemur -18.8886 -4.09329 -18.9809
ltibia 29.7665
lfoot -16.0429 10.7244
ltoes -30.7355
